<svg width="40" height="20" viewBox="0 0 40 20" fill="none" xmlns="http://www.w3.org/2000/svg">
<path d="M17.3666 3.84172C16.941 3.41589 16.4356 3.0781 15.8794 2.84763C15.3232 2.61716 14.727 2.49854 14.1249 2.49854C13.5229 2.49854 12.9267 2.61716 12.3705 2.84763C11.8143 3.0781 11.3089 3.41589 10.8833 3.84172L9.99994 4.72506L9.1166 3.84172C8.25686 2.98198 7.0908 2.49898 5.87494 2.49898C4.65908 2.49898 3.49301 2.98198 2.63327 3.84172C1.77353 4.70147 1.29053 5.86753 1.29053 7.08339C1.29053 8.29925 1.77353 9.46531 2.63327 10.3251L3.5166 11.2084L9.99994 17.6917L16.4833 11.2084L17.3666 10.3251C17.7924 9.89943 18.1302 9.39407 18.3607 8.83785C18.5912 8.28164 18.7098 7.68546 18.7098 7.08339C18.7098 6.48132 18.5912 5.88514 18.3607 5.32893C18.1302 4.77271 17.7924 4.26735 17.3666 3.84172Z" fill="#EC6627"/>
<path d="M37.3666 3.84172C36.941 3.41589 36.4356 3.0781 35.8794 2.84763C35.3232 2.61716 34.727 2.49854 34.1249 2.49854C33.5229 2.49854 32.9267 2.61716 32.3705 2.84763C31.8143 3.0781 31.3089 3.41589 30.8833 3.84172L29.9999 4.72506L29.1166 3.84172C28.2569 2.98198 27.0908 2.49898 25.8749 2.49898C24.6591 2.49898 23.493 2.98198 22.6333 3.84172C21.7735 4.70147 21.2905 5.86753 21.2905 7.08339C21.2905 8.29925 21.7735 9.46531 22.6333 10.3251L23.5166 11.2084L29.9999 17.6917L36.4833 11.2084L37.3666 10.3251C37.7924 9.89943 38.1302 9.39407 38.3607 8.83785C38.5912 8.28164 38.7098 7.68546 38.7098 7.08339C38.7098 6.48132 38.5912 5.88514 38.3607 5.32893C38.1302 4.77271 37.7924 4.26735 37.3666 3.84172Z" fill="#FFFCFB"/>
</svg>
