<?xml version="1.0" encoding="UTF-8"?>
<svg id="Layer_1" data-name="Layer 1" xmlns="http://www.w3.org/2000/svg" viewBox="0 0 243.23 197.31">
  <path d="M151.82,3.81s0,0,0,0c-.06-.21-.31-.07-.46.06.06,0,.13.01.19.01.1-.03.2-.05.27-.08Z"/>
  <path d="M78.34,53.18c-.26-.21-.58-.18,0,0h0Z"/>
  <path d="M7.48,131.82s0-.04,0-.05c-.06.21-.03.31,0,.3,0-.06.01-.11.02-.17,0-.02,0-.04-.01-.07Z"/>
  <path d="M87.34,63.61c-.03-.05-.06-.11-.09-.16-.24-.51-.07,0,.09.16Z"/>
  <path d="M243.14,3.32c-.38-1.37-1.75-2.02-3.08-1.75-.6.12-1.38.16-1.97.38-.1,0-.21,0-.31.01-.41.02-.83.05-1.24.06-.64.02-1.28-.03-1.93-.03,0,0-.01,0-.02-.01-.37-.21-.86-.31-1.26-.46-2.52-.91-5.24-.66-7.8-.11-.8-.19-1.62-.39-2.43-.38-1.01,0-2,.12-3.01.09-.95-.03-1.99-.12-2.94,0-.21-.06-.43-.11-.62-.16-.44-.12-.87-.25-1.31-.34-3.85-.78-7.71-.02-11.6-.27-1.14-.07-2.28-.22-3.41-.32-1.01-.08-1.98.13-2.96.36-.71-.15-1.45-.33-2.14-.33-.74,0-1.54.2-2.29.35-1.13-.16-2.25-.31-3.38-.41-1.28-.12-2.34.34-3.45.85-.49-.04-.99-.08-1.48-.08-.05,0-.06,0-.09,0-.28-.04-.55-.08-.83-.12-1.36-.19-2.66-.2-4.03.02-.69.11-1.4.34-2.05.59,0,0,0,0-.01,0-.29-.06-.69-.03-.95-.05-1.06-.08-2.04.09-3.05.3-1.13-.29-2.17-.52-3.38-.43-1.17.09-2.25.32-3.37.61-1.21-.2-2.36-.36-3.56.14-.88.36-1.73.62-2.63.85-.87-.31-1.85-.69-2.71-.56-.84.13-1.64.65-2.39,1.13-.91-.02-1.81-.04-2.69.25-.32.1-.65.21-.97.31,0,.03.02.06.02.11,0,0-.12-.01-.29-.03-.06.02-.11.03-.16.06-.19.12-.14.03-.03-.07-.54-.04-1.34-.1-1.45-.11-1.97-.06-4.16.61-5.98,1.32-.3.12-.67.21-.96.37-.55-.08-1.24-.02-1.77,0-1.04.05-2.1.43-3.09.71-1.04.3-2.06.61-3.11.87,0,0-.32.08-.56.13-.02,0-.03,0-.05,0-.59,0-1.2.02-1.78.07-1.49.13-2.88.42-4.19,1.12-.85.45-1.7.92-2.55,1.38-.75.01-1.54.01-2.23.2-.73.2-1.42.71-2.07,1.16-.46.03-.91.05-1.37.1-1.08.11-2.01.74-2.85,1.42-.04.03-.05.05-.08.07-.46.13-.9.3-1.36.43-.64.19-1.3.3-1.96.43-1.43.29-2.84.96-4.11,1.68-.57.32-1.13.64-1.69.98-.24.14-.85.37-1.03.61-.14.05-.28.1-.41.15-1.48.54-3.16,1.02-4.4,1.99-.36.28-.71.57-1.07.85-.04.03-.08.06-.12.1-.03,0-.06,0-.11.01-.39.08-.82.34-1.18.5-.04.02-.08.03-.12.05-.03.01-.05.02-.11.04-1.48.57-2.96,1.17-4.29,2.05-.78.51-1.31,1.32-1.97,1.97-.41.41-.87.76-1.3,1.15-.19.01-.51.22-.68.3-.4.18-.83.33-1.22.54-.63.34-1.26.79-1.84,1.21-1.41,1-2.4,2.29-3.35,3.68-.63.4-1.3.8-1.81,1.31-.52.52-.9,1.26-1.27,1.94-.68.45-1.41.92-1.87,1.51-.4.52-.67,1.21-.91,1.89-.98.57-1.84,1.14-2.54,2.16-.42.61-.92,1.19-1.14,1.9-.17.54-.46,1.36-.48,1.95-.01.02-.02.03-.04.06-.24.37-.5.75-.7,1.14-.32.28-.61.63-.91.93-.71.73-1.11,1.38-1.21,2.44-.05.47-.08.93-.12,1.4-.31.64-.65,1.28-.96,1.94-.09.02-.17.04-.26.06-.7-.18-1.45-.39-2.14-.39s-1.36.15-2.03.28c-1.17-.31-2.27-.54-3.5-.59-.9-.03-1.56-.01-2.42.39-.36.17-.72.35-1.07.53-.8-.1-1.69-.26-2.43-.05-.69.19-1.35.68-1.97,1.13-.78-.06-1.58-.12-2.33.07-.98.24-1.96.56-2.87.99-.41.2-.84.39-1.25.62-.27,0-.6.15-.86.21-1.17.29-1.95.72-2.93,1.41-.05.03-.37.22-.46.31-.48.17-.97.34-1.44.52-.9.35-1.75.82-2.61,1.25-.85.43-1.79.78-2.51,1.42-.65.58-1.22,1.25-1.91,1.79-.31.24-.62.49-.93.73-.67.52,0-.08.05-.06-.25-.09-1.47.62-1.73.76-.8.42-1.4,1.26-1.96,2.05-.74.33-1.6.65-2.15,1.2-.56.56-.92,1.38-1.28,2.11-1.49,1.07-3.07,2.2-3.91,3.84-.14.27-.28.54-.42.82-.06.12-.1.21-.13.27-.34.38-.89,1.05-.95,1.12-.58.68-.94,1.45-1.3,2.25-.71.44-1.47.91-1.94,1.52-.53.68-.66,1.64-.81,2.52-.52.49-1.08,1-1.42,1.58-.39.67-.58,1.51-.79,2.28-.84,1.11-1.61,2.2-2.23,3.49-.39.83-.64,1.77-.88,2.65-.08.29-.14.58-.2.87-.07.29-.15.58-.2.87-.04.24-.22.48-.05.23-.13.26-.26.52-.39.77-.13.27-.26.53-.4.79-.42.81-1,1.64-1.27,2.52-.41,1.36-.49,2.81-.54,4.23-.6.87-1.26,1.77-1.27,2.85-.01,1,.12,1.97.03,2.97-.02.24-.04.48-.06.72-.26.14-.58,1.36-.69,1.65-.31.85-.19,1.76-.09,2.65-.42.72-.86,1.5-.97,2.27-.1.77.1,1.65.27,2.47-.28,1.09-.52,2.15-.66,3.28-.14,1.12.03,2.15.22,3.23-.1.48-.2.97-.28,1.46-.19,1.12.15,1.82.54,2.82.05.13.1.29.16.43-.04.35,0,.78,0,1.1-.02.65.03,1.26.1,1.91.02.18.02.42.06.61.02-.08.06-.17.12-.29-.06.11-.08.26-.1.42.02.1,0,.16-.02.17-.01.17-.02.34-.04.47-.11.73-.26,1.45-.2,2.19.12,1.37.42,2.57.84,3.83-.16.49-.32.98-.45,1.48-.3,1.18.19,2,.76,2.94.12.2.26.55.43.8.01.18.09.4.11.54.04.26.07.56.11.85,0,.02,0,.03-.01.05-.03.19-.01.41-.02.61-.05,1.55-.05,3.35.57,4.79.21.48.48.96.68,1.46-.01.08.11.69.15.88.05.22.1.44.15.67-.06.46-.13.93-.19,1.39-.18,1.3.26,2.04.9,3.08.11.18.21.36.33.54-.05-.1-.09-.21-.04-.23,0,0,.01.1.04.23,0,0,0,.01.01.02.28.4.1.19-.01-.02.08.32.22.86.23.9.15.62.3,1.24.46,1.86.3,1.23.69,2.45.87,3.7.12.82.14,1.61.5,2.36.2.43.43.85.65,1.27-.02.77-.06,1.61.13,2.31.2.74.75,1.43,1.23,2.08.12,1.63.35,3.16,1.03,4.71.16.37.33.73.49,1.1.07.15.14.31.21.46,0,.01,0,.01,0,.03.2.79.52,1.58.83,2.34.6,1.49.93,3.03,1.46,4.54.31.91.65,1.75,1.12,2.59.12.23.24.46.38.68.42.69,0-.18-.03-.19.14.06.3.56.42.96-.86-.33-1.73-.64-2.62-.88-.59-.16-1.18-.34-1.77-.52-.36-.11-.76-.29-1.14-.35-.04-.02-.08-.04-.12-.06-.86-.39-1.78-.94-2.72-.99-.52-.03-1.05-.02-1.58,0-1.29-.77-2.52-1.38-4.06-1.7-.55-.11-.93-.07-1.47-.02-.21.02-.89-.02-1.24.06-.17-.08-.36-.14-.52-.21-.38-.16-.76-.31-1.14-.47-1.25-.51-2.75.55-3.08,1.75-.39,1.43.49,2.56,1.75,3.08.94.38,1.9.93,2.93.91.53,0,1.32,0,1.84-.17.25.08.51.14.76.21.2.06.4.13.61.18.48.36,1.06.7,1.58.98.94.52,2.08.44,3.16.41.87.4,1.75.79,2.67,1.07,1.12.35,2.26.62,3.37.98.56.18,1.11.43,1.66.63.04.01.05.02.08.03.27.14.56.26.83.39,1.16.54,2.35,1.01,3.55,1.49.45.18.88.19,1.27.08.34-.04.68-.13.97-.3,1.25-.73,1.48-2.2.9-3.42-.19-.4-.38-.79-.57-1.19-.06-.13-.12-.26-.19-.39,0-.04-.01-.06-.02-.12-.08-.34-.18-.67-.28-1.01.08-.84.17-1.67.24-2.52.85-2.02,1.55-4.04,1.97-6.21.22-1.14.33-2.14.76-3.22.4-1.02.52-2.02.61-3.07.29-.43.58-.86.84-1.3.43-.74.49-1.53.58-2.36.1-.92.21-1.83.33-2.74.33-.6.68-1.21.94-1.84.31-.77.43-1.64.61-2.45.7-3.13-4.12-4.47-4.82-1.33-.08.36-.16.72-.24,1.08-.06.26-.16.55-.18.82,0,.06,0,.1,0,.14-.36.76-1.11,2.25-1.15,2.44-.25,1.27-.35,2.58-.48,3.87-.41.6-.87,1.2-1.13,1.86-.29.71-.42,1.9-.41,2.78,0,0,0,0,0,0-.12.2-.18.46-.27.68-.15.37-.34.75-.45,1.14-.19.71-.21,1.47-.35,2.19-.13.69-.3,1.39-.48,2.07-.06-.26-.12-.53-.2-.78-.23-.72-.58-1.4-.84-2.1-.36-.96-.64-1.93-1.05-2.87-.18-.41-.36-.83-.55-1.24.02-.2-.16-.55-.22-.74-.09-.31-.17-.63-.28-.93,0-.03-.01-.03-.02-.05,0-.52-.06-1.07-.1-1.58-.09-1.18-.65-2-1.28-2.91,0-.45,0-.91-.03-1.36-.05-.97-.52-1.73-.96-2.57-.05-.1-.11-.21-.16-.31-.03-.25-.12-.9-.13-.95-.09-.65-.19-1.26-.35-1.9-.31-1.26-.63-2.51-.93-3.77-.19-.8-.32-1.65-.71-2.39-.22-.41-.47-.81-.72-1.2.04-.26.07-.51.11-.77.12-.9.02-1.66-.17-2.53-.25-1.15-.69-2.19-1.16-3.25-.07-.49-.14-.99-.16-1.48-.04-.96.12-1.88-.02-2.84-.13-.91-.15-1.91-.57-2.73-.19-.37-.41-.73-.63-1.09.12-.36.23-.73.33-1.09.27-1.06-.06-1.8-.41-2.77-.06-.17-.11-.36-.19-.52,0,.09,0,.19-.03.33.02-.13,0-.29-.02-.44-.04-.09-.04-.15-.03-.17-.03-.15-.06-.3-.08-.43,0-.04-.1-1.04-.13-1.04,0,0,0,0,0,.01.02-.12.03-.24.05-.36.11-.79.26-1.56.22-2.36-.04-.66-.15-1.3-.15-1.96,0-.84.18-1.74-.04-2.57-.15-.57-.41-1.13-.65-1.68.19-.9.36-1.82.21-2.73-.08-.52-.17-1.04-.27-1.55,0-.01.01-.01.02-.03.1-.25.08-.63.11-.89.02-.19.04-.37.07-.56,0-.02.01-.02.02-.04.23-.53.35-1.19.48-1.76.19-.84.05-1.75-.11-2.63.47-.83.95-1.73.94-2.61,0-.52-.02-1.18-.14-1.7.13-.22.21-.53.3-.74.72-1.72.72-3.54.64-5.38.31-.45.62-.9.88-1.38.43-.81.51-2.33.42-3.26,0-.06.02-.12.03-.18.07-.37.29-.94.26-1.34.06-.12.12-.24.18-.35.2-.38.41-.77.61-1.15.32-.63.65-1.27.95-1.91.39-.83.51-1.72.74-2.61.17-.65.42-1.28.58-1.93.04-.08.07-.16.1-.22.2-.39.62-.92.7-1.35,0-.02,0-.02,0-.03.09-.12.18-.23.27-.35.25-.32.5-.64.75-.96.57-.74.84-1.63,1.1-2.52.55-.51,1.16-1.05,1.52-1.67.34-.58.47-1.34.58-2.05.28-.19.57-.38.85-.58.91-.65,1.17-1.39,1.62-2.35.06-.12.17-.29.2-.43.22-.24.42-.49.63-.73.54-.61.94-1.2,1.31-1.93.07-.13.38-.58.48-.86.11-.1.22-.22.32-.31.28-.26.63-.51.88-.81.03-.02.07-.05.1-.07.73-.54,1.66-1.08,2.16-1.85.27-.42.5-.87.74-1.32.7-.3,1.46-.61,1.97-1.12.45-.45.84-1.02,1.22-1.57,1.58-.73,2.97-1.57,4.25-2.8.25-.24.78-.6,1.02-.94.29-.12.57-.28.85-.43.77-.39,1.55-.76,2.32-1.16.06-.03.09-.05.13-.07.13-.04.25-.08.25-.08.48-.17.96-.33,1.44-.52.53-.21.86-.43,1.32-.76.24-.17.5-.33.73-.52.01,0,.02-.01.03-.02.4-.02,1.04-.3,1.34-.37.48-.12.9-.28,1.35-.49.43-.2.85-.42,1.27-.64.21-.02.49-.16.67-.22.28-.09.57-.16.85-.26.51.12,1.23.06,1.73.06,1.11,0,1.97-.58,2.84-1.17.75.1,1.56.22,2.25.03.66-.18,1.31-.55,1.94-.89.42.03.83.05,1.25.04.37.14.77.21,1.15.31,1.18.32,2.28.18,3.43,0,.34.09.68.17,1.03.25-.23.8-.45,1.58-.42,2.43.08,1.89.06,3.81.44,5.66.04.19.08.38.12.58,0,.36,0,1.28,0,1.37,0,.81.06,1.62.13,2.42.11,1.23.61,2.46,1.21,3.55.4.72,1.06,1.3,1.69,1.86.26.93.54,1.98,1.19,2.6.67.65,1.5,1.17,2.21,1.78.91.77,1.73,1.38,2.81,1.9.68.33,1.28.63,2.05.72.54.06,1.08.1,1.62.15,1.19.11,2.07-.46,3.18-.76,1.15-.32,2.44-.17,3.36-1.05,1.45-1.39,2.36-3.2,3.47-4.84.79-1.16,1.15-2.16,1.45-3.53.28-1.29-.05-2.35-.41-3.54.2-1.15.39-2.36-.06-3.42-.34-.81-.65-1.65-1.08-2.43-1.04-1.9-2.37-3.42-4.01-4.8-.5-.42-1.01-.93-1.61-1.2-.57-.25-1.21-.36-1.81-.52-.15-.04-.33-.1-.5-.14-.46-.38-1.07-.72-1.59-1.01-.87-.48-1.92-.74-2.87-1.03-.54-.17-1.08-.32-1.62-.48-.03,0-.04-.01-.07-.02.04.03.07.07.1.11-.1-.14-.57-.25-.73-.32-.47-.2-.91-.38-1.36-.54.11-.24.22-.48.31-.72.24-.67.3-1.43.34-2.17.94-1,1.8-2.02,2.44-3.29.11-.22.45-1.62.64-2.35-.09.08-.13.09.02-.07.06-.23.1-.37.12-.37.08,0,.11.03.11.08.09-.14.18-.28.27-.41.05-.08.11-.16.16-.23.73-.38,1.55-.77,2.11-1.33.53-.53.86-1.43,1.15-2.26.53-.35,1.07-.71,1.5-1.14.52-.52.89-1.24,1.26-1.91.6-.38,1.22-.76,1.7-1.24.37-.37.66-.91.95-1.34.15-.22.3-.44.44-.66,0,0,0,0,.01-.02.26-.25.84-.77.9-.82.11-.1.24-.21.36-.33.67-.42,1.29-.89,2.01-1.21.92-.41,1.68-.75,2.45-1.42.61-.53,1.2-1.05,1.75-1.64.05-.05.48-.54.76-.83.01,0,.02,0,.04-.02.26-.13.5-.28.75-.42.2-.12.43-.22.62-.35.03-.02.05-.04.07-.05.4-.16.8-.32,1.2-.48.93-.38,1.94-.72,2.84-1.19.68-.36,1.31-.92,1.92-1.44,1.14-.45,2.29-.87,3.43-1.32.87-.34,1.63-.89,2.43-1.36.26-.15.52-.29.78-.44.26-.15.53-.28.78-.44.19-.12.6-.21.12-.09.03,0,.05-.02.07-.02.24-.09.48-.18.72-.28.3-.12.61-.26.92-.35.71-.2,1.45-.25,2.16-.44.78-.2,1.62-.45,2.35-.78.61-.28,1.17-.7,1.72-1.11.7-.02,1.43-.04,2.07-.21.72-.2,1.41-.7,2.05-1.14.38-.02.77-.04,1.15-.07.92-.07,1.6-.4,2.39-.83.44-.24.87-.48,1.31-.71.32-.17.64-.34.96-.51.1-.05.2-.11.3-.16.3.1,1.16-.15,1.66-.28.08,0,.17-.01.25-.02.47-.02.95-.02,1.42-.05,1.17-.07,2.33-.42,3.45-.75,1.08-.32,2.45-.52,3.5-.97.02,0,.03,0,.05,0,.38.02.76,0,1.13.01.79,0,1.4-.11,2.12-.4,1.09-.42,2.2-.83,3.34-1.09.53-.12,1.09-.18,1.63-.26.03.01.05.02.11.03.42.08.89.07,1.32.1.77.06,1.4-.07,2.14-.3.06-.02.62-.19.97-.3.17,0,.35,0,.5,0,.96.01,1.81.07,2.69-.38.34-.18.68-.37,1.01-.57,1.1.32,2.09.52,3.34.22,1.09-.26,2.06-.62,3.09-1.04.77.15,1.58.3,2.29.22.48-.05.94-.2,1.4-.33.24-.06.49-.12.73-.19.03-.01.05-.02.07-.02.38-.02.76-.06,1.14-.09,0,0,.22-.01.4-.03,0,0,0,0,.01,0,1.18.34,2.22.63,3.45.39.42-.08.85-.16,1.27-.25.17.07.59.03.73.04,1.08.08,1.9.04,2.95-.29.25-.08.51-.15.76-.24.02,0,.04-.01.06-.02-.08,0-.16,0-.27-.03.1.02.2.02.31.02.21-.06.28-.04.23-.02.33-.03.68-.1.96-.13.1,0,.49.01.56-.05,0,0-.02-.01-.05-.02.46.07.92.13,1.38.2,1,.14,2.06.28,3.07.26.85-.02,1.79-.48,2.64-.91.49.05.98.1,1.46.13.04,0,.04,0,.07,0,.32.05.64.09.96.14.8.11,1.53.19,2.33.06.4-.07.81-.14,1.21-.21.62.12,1.25.25,1.88.31.61.05,1.16-.08,1.74-.21.23-.05.8-.08,1.16-.19.23.03.47.04.69.05.37.03.74.05,1.1.09.73.07,1.46.18,2.19.22,1.42.07,2.97.13,4.39.07.74-.03,1.48-.2,2.22-.23.47-.02.95,0,1.42,0,.12,0,.39.04.52,0,1.56.3,3.22.92,4.78.92,1.47,0,2.98.08,4.44,0,.48-.03,1.03,0,1.49-.1,0,0,0,0,0,0,.12.02.23.03.33.05,1.1.24,2.05.45,3.18.2.45-.1.9-.2,1.35-.31.17,0,.36-.02.5-.02.3,0,1.09.13,1.35-.03,0,0,0,0-.02-.01.17.02.34.05.51.07.95.13,1.69.37,2.59.7.99.36,1.98.34,3.03.36,1.87.03,3.64-.26,5.47-.63,1.32-.27,2.09-1.84,1.75-3.08ZM8.82,107.9s0,.09-.01.14c-.06.74-.02-.02.01-.14ZM9.11,145.5s0,.07.02.1c0-.03-.01-.06-.02-.1ZM28.78,165.35s-.03.1-.09.24c.04-.14.07-.27.09-.24ZM21.24,175.83c-.03-.06-.06-.13-.09-.19-.27-.6.06.1.09.19ZM23.6,73.56c.06-.09.13-.18.16-.16,0,0-.07.06-.16.16ZM41.12,63.95c-.09.05-.14.06,0,0h0ZM44.57,56.93s-.06.02-.09.03c.2-.1.71-.25.09-.03ZM48.17,60.32s.09,0,.14,0c-.05.01-.09.01-.14,0ZM48.41,60.28c.31-.24.19-.08,0,0h0ZM52.5,58.73c.33-.17.18-.09,0,0h0ZM86.59,75.37s.04-.04.08-.09c-.04.06-.07.1-.08.09ZM88.85,71.88c.04-.12.08-.24.11-.21,0,0-.04.1-.11.21ZM78.73,58.51c.59.19,1.18.41,1.77.59.01.01.01.01.03.03.29.22.63.4.94.6,1.01.64,2.06.92,3.18,1.21,1.01.88,2.92,2.6,2.8,2.7-.03.03-.07,0-.11-.04.09.16.19.31.28.47.21.36.45.72.64,1.09.2.38.36.78.53,1.19-.09.58-.18,1.16-.23,1.74-.07.9.24,1.8.52,2.67-.03.12-.06.24-.08.36-.05.22-.12.45-.16.67-.01.07-.02.1-.03.15-.32.49-1.03,1.46-1.11,1.59-.08.13-.63,1.11-.93,1.59-.01.02-.02.02-.04.05-.17.19-.33.39-.49.59l-.28.34c-.83.15-1.65.31-2.46.61-.24.09-.61.15-.86.28-.36-.06-.73-.09-1.1-.11-.33-.17-.65-.33-.99-.47-.06-.03-.21-.13-.29-.15-.17-.14-.35-.28-.52-.43-.68-.57-1.37-1.12-2.07-1.67-.36-1.12-.74-2.14-1.65-3.01-.27-.25-.53-.52-.8-.77,0,0,0,0,0,0-.1-.38-.29-.77-.49-1.14-.06-1.25-.06-2.5-.12-3.75-.04-.76-.22-1.59-.41-2.35.01-.16-.02-.45-.02-.52,0-.47.01-.94,0-1.41-.02-.58.05-1.44-.12-2.01.02-.1.05-.2.07-.3.12-.44.25-.88.36-1.32.04-.16.09-.34.15-.53.15.07.3.13.45.2,1.2.52,2.4.88,3.65,1.27ZM98.22,26.61s.08-.08.09-.08c0,0-.03.04-.09.08ZM134.29,7.22c-.05.01-.09.03-.09.03,0-.01.04-.02.09-.03ZM154.51,8.2c.05-.02.09-.03.09-.03,0,.02-.04.03-.09.03ZM171.14,6.02s.04,0,.04,0c0,0-.02,0-.04,0ZM199.59,4.99s-.04,0,0,0h0ZM212.2,5.18s.09.02.14.03c-.22-.03-.66-.12-.14-.03ZM234.22,1.99c0-.05.12-.03.24,0-.11,0-.23,0-.24,0Z"/>
  <polygon points="11.6 158.64 11.6 158.64 11.6 158.64 11.6 158.64"/>
  <path d="M180.25,5.65s-.03,0-.04.01c.14,0,.23-.01.27-.03-.08,0-.15.01-.23.02Z"/>
  <path d="M80.1,43.83s-.01.04-.02.07c.1-.09.25-.26.24-.36-.07.1-.13.2-.21.28,0,.01-.01.01-.02.02Z"/>
  <path d="M12.46,136.04s.01.04.02.05c0-.23-.05-.31-.08-.28.01.06.02.11.03.17,0,.02.01.04.02.06Z"/>
</svg>