<?xml version="1.0" encoding="UTF-8"?>
<svg id="Layer_1" data-name="Layer 1" xmlns="http://www.w3.org/2000/svg" viewBox="0 0 158.74 79.37">
  <defs>
    <style>
      .cls-1 {
        fill: #fafdff;
      }
    </style>
  </defs>
  <path class="cls-1" d="M36.89,40.73v10.91c0,1.72-.4,3.02-1.2,3.88-.8.86-1.85,1.29-3.16,1.29s-2.3-.43-3.09-1.29c-.79-.86-1.18-2.15-1.18-3.88v-13.07c0-2.06-.07-2.64-.21-3.78-.14-1.14-.53-2.08-1.17-2.81s-1.64-1.1-3.01-1.1c-2.74,0-4.55.92-5.42,2.76-.87,1.84-1.31,3.46-1.31,6.91v11.09c0,1.7-.39,2.99-1.18,3.86-.79.87-1.83,1.31-3.12,1.31s-2.31-.44-3.12-1.31c-.81-.87-1.21-2.16-1.21-3.86v-23.47c0-1.54.36-2.71,1.09-3.52.73-.8,1.68-1.2,2.87-1.2s2.1.38,2.87,1.13c.77.75,1.15,1.79,1.15,3.11v.78c1.45-1.7,3.01-2.95,4.67-3.76,1.66-.8,3.5-1.2,5.53-1.2s3.92.41,5.44,1.23c1.52.82,2.76,3.09,3.75,4.75.92-1.8,2.93-3.96,4.55-4.77,1.62-.81,3.41-1.22,5.38-1.22,2.29,0,4.27.44,5.93,1.32,1.66.88,2.9,2.14,3.72,3.79.72,1.48,1.08,3.82,1.08,7v16.02c0,1.72-.4,3.02-1.2,3.88-.8.86-1.85,1.29-3.16,1.29s-2.31-.44-3.12-1.31c-.81-.87-1.21-2.16-1.21-3.86v-13.79c0-1.76-.08-2.15-.23-3.21-.15-1.06-.57-1.95-1.24-2.67-.68-.72-1.7-1.08-3.07-1.08-1.11,0-2.16.32-3.15.96-.99.64-1.77,1.5-2.32,2.58-.61,1.38-.92,2.8-.92,6.31Z"/>
  <path class="cls-1" d="M68.46,20.54c-1.22,0-2.27-.37-3.13-1.13-.87-.75-1.3-1.81-1.3-3.18,0-1.24.44-2.27,1.33-3.07.89-.8,1.92-1.21,3.1-1.21s2.14.36,3.02,1.09c.88.73,1.32,1.79,1.32,3.18s-.43,2.41-1.29,3.17c-.86.76-1.87,1.14-3.05,1.14ZM72.66,28.11v23.71c0,1.64-.39,2.88-1.17,3.73s-1.77,1.26-2.97,1.26-2.18-.43-2.93-1.29c-.75-.86-1.13-2.09-1.13-3.69v-23.47c0-1.62.38-2.84,1.13-3.67.75-.82,1.73-1.23,2.93-1.23s2.19.41,2.97,1.23c.78.82,1.17,1.96,1.17,3.43Z"/>
  <path class="cls-1" d="M91.42,22.22v1.95h2.03c3.14,0,4.71.94,4.71,2.82,0,1.34-.42,2.19-1.25,2.55-.84.36-1.99.54-3.46.54h-2.03v21.72c0,1.62-.39,2.86-1.16,3.71s-1.78,1.28-3.01,1.28-2.14-.43-2.92-1.28c-.78-.85-1.16-2.09-1.16-3.71v-21.72h-2.27c-1.23,0-2.18-.28-2.84-.83-.66-.55-1-1.27-1-2.15,0-1.96,1.38-2.94,4.14-2.94h1.96v-2.46c0-2.56.33-4.6.98-6.11.65-1.51,1.76-2.61,3.32-3.3,1.56-.69,2.81-1.11,5.53-1.11,4.81,0,5.57,2.39,5.57,4.73,0,.76-.25,1.41-.76,1.95-.5.54-1.13.93-1.82.93-.32,0-.41.04-1.2-.08-.79-.12-2.05-.42-2.77.09-.69.48-.61,3.41-.61,3.41Z"/>
  <path class="cls-1" d="M113.15,22.22v1.95h2.03c3.14,0,4.71.94,4.71,2.82,0,1.34-.42,2.19-1.25,2.55-.84.36-1.99.54-3.46.54h-2.03v21.72c0,1.62-.39,2.86-1.16,3.71s-1.78,1.28-3.01,1.28-2.14-.43-2.92-1.28c-.78-.85-1.16-2.09-1.16-3.71v-21.72h-2.27c-1.23,0-2.18-.28-2.84-.83-.66-.55-1-1.27-1-2.15,0-1.96,1.38-2.94,4.14-2.94h1.96v-2.46c0-2.56.33-4.6.98-6.11.65-1.51,1.76-2.61,3.32-3.3,1.56-.69,2.81-1.11,5.53-1.11,4.81,0,5.57,2.39,5.57,4.73,0,.76-.25,1.41-.76,1.95-.5.54-1.13.93-1.82.93-.32,0-.41.04-1.2-.08-.79-.12-2.05-.42-2.77.09-.69.48-.61,3.41-.61,3.41Z"/>
  <path class="cls-1" d="M131.66,57.1l-9.43-26.53c-.6-1.46-.9-2.52-.9-3.19,0-.7.17-1.35.52-1.95.35-.6.84-1.05,1.43-1.44.76-.51,2.18-.58,2.83-.58,1.14,0,1.99.38,2.57,1.13s1.09,1.83,1.53,3.23l5.7,18.28,5.21-16.9c.5-1.52.95-2.71,1.36-3.58.4-.86.83-1.44,1.29-1.74.45-.3,1.09-.43,1.92-.45.87-.02,2.19.23,2.87.57.57.29.97.78,1.27,1.34s.45,1.17.41,1.76c-.03.39-.16.93-.34,1.64-.17.7-.39,1.41-.64,2.13l-10.28,28c-.89,2.46-1.75,4.4-2.6,5.8-.85,1.4-1.94,2.6-3.43,3.13-.9.32-3,.46-3.35.44-2.31-.11-3.32-.64-4.48-1.16-1.16-.52-1.8-2.08-1.8-3.46,0-.94.27-1.67.82-2.18.55-.51,1.36-.77,2.44-.77.42,0,.75-.01,1.04.01.51.04.83.1,1.2.06,1.29-.13,1.41-.35,1.9-.67.69-.45.96-1.01,1.38-1.7l-.43-1.21Z"/>
</svg>